<?xml version="1.0" encoding="UTF-8" standalone="no"?><!-- Generator: Gravit.io --><svg xmlns="http://www.w3.org/2000/svg" xmlns:xlink="http://www.w3.org/1999/xlink" style="isolation:isolate" viewBox="-1487.903 1243.72 865.903 300.28" width="865.903pt" height="300.28pt"><g style="isolation:isolate"><path d=" M -1487.903 1243.72 L -622 1243.72 L -622 1544 L -1487.903 1544 L -1487.903 1243.72 Z " fill="rgb(255,255,255)"/><path d=" M -999.752 1243.72 Q -1008.56 1243.733 -1008.559 1243.72 L -1173.929 1243.72 L -1173.929 1255.943 L -1173.929 1256.324 L -1173.929 1256.324 L -1173.929 1256.324 L -1173.929 1256.324 C -1173.723 1318.006 -1123.582 1368.02 -1061.853 1368.02 C -1004.387 1368.02 -956.965 1324.677 -950.521 1268.928 L -962.195 1268.928 C -965.102 1291.364 -975.423 1311.487 -990.625 1326.751 L -990.625 1326.751 C -991.346 1320.49 -993.36 1314.524 -996.466 1309.024 C -1000.52 1312.684 -1005.889 1314.917 -1011.776 1314.917 C -1024.373 1314.917 -1034.6 1304.69 -1034.6 1292.093 C -1034.6 1287.952 -1033.494 1284.066 -1031.553 1280.722 C -1040.754 1277.307 -1051.024 1275.401 -1061.853 1275.401 C -1099.117 1275.401 -1129.765 1297.972 -1133.08 1326.751 C -1151.08 1308.679 -1162.236 1283.794 -1162.346 1256.324 L -975.973 1256.324 L -975.973 1256.324 L -949.776 1256.324 L -949.776 1256.324 L -949.776 1256.324 L -949.776 1256.324 L -935.973 1256.324 L -935.973 1243.72 L -949.776 1243.72 L -961.359 1243.72 L -961.359 1243.72 L -999.752 1243.72 Z " fill="rgb(56,172,255)"/><path d=" M -1090.386 1462.707 L -1090.386 1462.707 L -1090.386 1462.707 Q -1101.778 1462.707 -1108.855 1455.532 L -1108.855 1455.532 L -1108.855 1455.532 Q -1115.932 1448.356 -1115.932 1436.422 L -1115.932 1436.422 L -1115.932 1434.942 L -1115.932 1434.942 Q -1115.932 1426.953 -1112.849 1420.665 L -1112.849 1420.665 L -1112.849 1420.665 Q -1109.767 1414.377 -1104.194 1410.876 L -1104.194 1410.876 L -1104.194 1410.876 Q -1098.622 1407.374 -1091.767 1407.374 L -1091.767 1407.374 L -1091.767 1407.374 Q -1080.868 1407.374 -1074.925 1414.328 L -1074.925 1414.328 L -1074.925 1414.328 Q -1068.982 1421.281 -1068.982 1434.005 L -1068.982 1434.005 L -1068.982 1438.838 L -1103.849 1438.838 L -1103.849 1438.838 Q -1103.307 1445.446 -1099.435 1449.293 L -1099.435 1449.293 L -1099.435 1449.293 Q -1095.564 1453.14 -1089.695 1453.14 L -1089.695 1453.14 L -1089.695 1453.14 Q -1081.459 1453.14 -1076.281 1446.482 L -1076.281 1446.482 L -1069.821 1452.647 L -1069.821 1452.647 Q -1073.026 1457.43 -1078.377 1460.069 L -1078.377 1460.069 L -1078.377 1460.069 Q -1083.728 1462.707 -1090.386 1462.707 Z  M -1091.816 1416.991 L -1091.816 1416.991 L -1091.816 1416.991 Q -1096.748 1416.991 -1099.781 1420.443 L -1099.781 1420.443 L -1099.781 1420.443 Q -1102.813 1423.895 -1103.652 1430.06 L -1103.652 1430.06 L -1080.818 1430.06 L -1080.818 1429.172 L -1080.818 1429.172 Q -1081.213 1423.155 -1084.024 1420.073 L -1084.024 1420.073 L -1084.024 1420.073 Q -1086.835 1416.991 -1091.816 1416.991 Z  M -1052.955 1408.36 L -1041.661 1444.559 L -1030.812 1408.36 L -1018.039 1408.36 L -1039.245 1469.809 L -1039.245 1469.809 Q -1044.127 1483.272 -1055.815 1483.272 L -1055.815 1483.272 L -1055.815 1483.272 Q -1058.429 1483.272 -1061.585 1482.384 L -1061.585 1482.384 L -1061.585 1473.113 L -1059.316 1473.261 L -1059.316 1473.261 Q -1054.779 1473.261 -1052.486 1471.609 L -1052.486 1471.609 L -1052.486 1471.609 Q -1050.193 1469.957 -1048.861 1466.061 L -1048.861 1466.061 L -1047.135 1461.474 L -1065.875 1408.36 L -1052.955 1408.36 L -1052.955 1408.36 Z  M -988.301 1462.707 L -988.301 1462.707 L -988.301 1462.707 Q -999.693 1462.707 -1006.77 1455.532 L -1006.77 1455.532 L -1006.77 1455.532 Q -1013.847 1448.356 -1013.847 1436.422 L -1013.847 1436.422 L -1013.847 1434.942 L -1013.847 1434.942 Q -1013.847 1426.953 -1010.764 1420.665 L -1010.764 1420.665 L -1010.764 1420.665 Q -1007.682 1414.377 -1002.109 1410.876 L -1002.109 1410.876 L -1002.109 1410.876 Q -996.537 1407.374 -989.682 1407.374 L -989.682 1407.374 L -989.682 1407.374 Q -978.783 1407.374 -972.84 1414.328 L -972.84 1414.328 L -972.84 1414.328 Q -966.897 1421.281 -966.897 1434.005 L -966.897 1434.005 L -966.897 1438.838 L -1001.764 1438.838 L -1001.764 1438.838 Q -1001.222 1445.446 -997.35 1449.293 L -997.35 1449.293 L -997.35 1449.293 Q -993.479 1453.14 -987.61 1453.14 L -987.61 1453.14 L -987.61 1453.14 Q -979.375 1453.14 -974.196 1446.482 L -974.196 1446.482 L -967.736 1452.647 L -967.736 1452.647 Q -970.941 1457.43 -976.292 1460.069 L -976.292 1460.069 L -976.292 1460.069 Q -981.643 1462.707 -988.301 1462.707 Z  M -989.731 1416.991 L -989.731 1416.991 L -989.731 1416.991 Q -994.663 1416.991 -997.696 1420.443 L -997.696 1420.443 L -997.696 1420.443 Q -1000.729 1423.895 -1001.567 1430.06 L -1001.567 1430.06 L -978.733 1430.06 L -978.733 1429.172 L -978.733 1429.172 Q -979.128 1423.155 -981.939 1420.073 L -981.939 1420.073 L -981.939 1420.073 Q -984.75 1416.991 -989.731 1416.991 Z  M -934.349 1426.361 L -934.349 1436.027 L -960.24 1436.027 L -960.24 1426.361 L -934.349 1426.361 L -934.349 1426.361 Z  M -883.208 1389.916 L -870.78 1389.916 L -870.78 1437.901 L -870.78 1437.901 Q -870.78 1449.342 -878.103 1456.025 L -878.103 1456.025 L -878.103 1456.025 Q -885.427 1462.707 -897.608 1462.707 L -897.608 1462.707 L -897.608 1462.707 Q -909.937 1462.707 -917.187 1456.123 L -917.187 1456.123 L -917.187 1456.123 Q -924.436 1449.54 -924.436 1437.852 L -924.436 1437.852 L -924.436 1389.916 L -912.008 1389.916 L -912.008 1437.95 L -912.008 1437.95 Q -912.008 1445.151 -908.359 1448.948 L -908.359 1448.948 L -908.359 1448.948 Q -904.709 1452.745 -897.608 1452.745 L -897.608 1452.745 L -897.608 1452.745 Q -883.208 1452.745 -883.208 1437.556 L -883.208 1437.556 L -883.208 1389.916 L -883.208 1389.916 Z  M -844.297 1389.916 L -844.297 1461.721 L -856.725 1461.721 L -856.725 1389.916 L -844.297 1389.916 L -844.297 1389.916 Z " fill="rgb(56,172,255)"/><path d=" M -1260.034 1434.893 L -1260.034 1435.583 L -1260.034 1435.583 Q -1260.034 1448.011 -1265.582 1455.359 L -1265.582 1455.359 L -1265.582 1455.359 Q -1271.13 1462.707 -1280.846 1462.707 L -1280.846 1462.707 L -1280.846 1462.707 Q -1290.216 1462.707 -1295.443 1455.951 L -1295.443 1455.951 L -1296.035 1461.721 L -1306.885 1461.721 L -1306.885 1385.971 L -1294.901 1385.971 L -1294.901 1413.489 L -1294.901 1413.489 Q -1289.723 1407.374 -1280.944 1407.374 L -1280.944 1407.374 L -1280.944 1407.374 Q -1271.18 1407.374 -1265.607 1414.624 L -1265.607 1414.624 L -1265.607 1414.624 Q -1260.034 1421.873 -1260.034 1434.893 L -1260.034 1434.893 L -1260.034 1434.893 Z  M -1272.018 1436.076 L -1272.018 1434.547 L -1272.018 1434.547 Q -1272.018 1425.868 -1275.076 1421.528 L -1275.076 1421.528 L -1275.076 1421.528 Q -1278.133 1417.188 -1283.953 1417.188 L -1283.953 1417.188 L -1283.953 1417.188 Q -1291.745 1417.188 -1294.901 1423.994 L -1294.901 1423.994 L -1294.901 1445.989 L -1294.901 1445.989 Q -1291.695 1452.943 -1283.854 1452.943 L -1283.854 1452.943 L -1283.854 1452.943 Q -1278.232 1452.943 -1275.174 1448.751 L -1275.174 1448.751 L -1275.174 1448.751 Q -1272.117 1444.559 -1272.018 1436.076 L -1272.018 1436.076 L -1272.018 1436.076 Z  M -1237.25 1385.971 L -1237.25 1461.721 L -1249.234 1461.721 L -1249.234 1385.971 L -1237.25 1385.971 L -1237.25 1385.971 Z  M -1191.583 1461.721 L -1191.879 1456.493 L -1191.879 1456.493 Q -1197.156 1462.707 -1206.871 1462.707 L -1206.871 1462.707 L -1206.871 1462.707 Q -1215.551 1462.707 -1220.014 1457.628 L -1220.014 1457.628 L -1220.014 1457.628 Q -1224.477 1452.548 -1224.477 1442.931 L -1224.477 1442.931 L -1224.477 1408.36 L -1212.493 1408.36 L -1212.493 1442.783 L -1212.493 1442.783 Q -1212.493 1452.943 -1204.06 1452.943 L -1204.06 1452.943 L -1204.06 1452.943 Q -1195.331 1452.943 -1192.273 1446.679 L -1192.273 1446.679 L -1192.273 1408.36 L -1180.29 1408.36 L -1180.29 1461.721 L -1191.583 1461.721 L -1191.583 1461.721 Z  M -1144.584 1462.707 L -1144.584 1462.707 L -1144.584 1462.707 Q -1155.977 1462.707 -1163.053 1455.532 L -1163.053 1455.532 L -1163.053 1455.532 Q -1170.13 1448.356 -1170.13 1436.422 L -1170.13 1436.422 L -1170.13 1434.942 L -1170.13 1434.942 Q -1170.13 1426.953 -1167.048 1420.665 L -1167.048 1420.665 L -1167.048 1420.665 Q -1163.966 1414.377 -1158.393 1410.876 L -1158.393 1410.876 L -1158.393 1410.876 Q -1152.82 1407.374 -1145.965 1407.374 L -1145.965 1407.374 L -1145.965 1407.374 Q -1135.066 1407.374 -1129.124 1414.328 L -1129.124 1414.328 L -1129.124 1414.328 Q -1123.181 1421.281 -1123.181 1434.005 L -1123.181 1434.005 L -1123.181 1438.838 L -1158.048 1438.838 L -1158.048 1438.838 Q -1157.505 1445.446 -1153.634 1449.293 L -1153.634 1449.293 L -1153.634 1449.293 Q -1149.763 1453.14 -1143.894 1453.14 L -1143.894 1453.14 L -1143.894 1453.14 Q -1135.658 1453.14 -1130.48 1446.482 L -1130.48 1446.482 L -1124.02 1452.647 L -1124.02 1452.647 Q -1127.225 1457.43 -1132.576 1460.069 L -1132.576 1460.069 L -1132.576 1460.069 Q -1137.927 1462.707 -1144.584 1462.707 Z  M -1146.015 1416.991 L -1146.015 1416.991 L -1146.015 1416.991 Q -1150.946 1416.991 -1153.979 1420.443 L -1153.979 1420.443 L -1153.979 1420.443 Q -1157.012 1423.895 -1157.851 1430.06 L -1157.851 1430.06 L -1135.017 1430.06 L -1135.017 1429.172 L -1135.017 1429.172 Q -1135.412 1423.155 -1138.223 1420.073 L -1138.223 1420.073 L -1138.223 1420.073 Q -1141.034 1416.991 -1146.015 1416.991 Z " fill="rgb(4,4,4)"/><path d=" M -755.949 1502.422 L -755.949 1527.922 L -759.021 1527.922 L -759.021 1502.422 L -755.949 1502.422 L -755.949 1502.422 Z  M -747.698 1509.959 L -747.698 1527.922 L -750.77 1527.922 L -750.77 1509.959 L -747.698 1509.959 L -747.698 1509.959 Z  M -751.019 1505.194 L -751.019 1505.194 L -751.019 1505.194 Q -751.019 1504.447 -750.562 1503.933 L -750.562 1503.933 L -750.562 1503.933 Q -750.106 1503.418 -749.209 1503.418 L -749.209 1503.418 L -749.209 1503.418 Q -748.313 1503.418 -747.848 1503.933 L -747.848 1503.933 L -747.848 1503.933 Q -747.383 1504.447 -747.383 1505.194 L -747.383 1505.194 L -747.383 1505.194 Q -747.383 1505.942 -747.848 1506.44 L -747.848 1506.44 L -747.848 1506.44 Q -748.313 1506.938 -749.209 1506.938 L -749.209 1506.938 L -749.209 1506.938 Q -750.106 1506.938 -750.562 1506.44 L -750.562 1506.44 L -750.562 1506.44 Q -751.019 1505.942 -751.019 1505.194 Z  M -727.577 1518.874 L -727.577 1519.14 L -727.577 1519.14 Q -727.577 1523.257 -729.47 1525.755 L -729.47 1525.755 L -729.47 1525.755 Q -731.363 1528.254 -734.55 1528.254 L -734.55 1528.254 L -734.55 1528.254 Q -737.953 1528.254 -739.813 1525.847 L -739.813 1525.847 L -739.962 1527.922 L -742.784 1527.922 L -742.784 1502.422 L -739.713 1502.422 L -739.713 1511.935 L -739.713 1511.935 Q -737.854 1509.627 -734.583 1509.627 L -734.583 1509.627 L -734.583 1509.627 Q -731.313 1509.627 -729.445 1512.101 L -729.445 1512.101 L -729.445 1512.101 Q -727.577 1514.574 -727.577 1518.874 L -727.577 1518.874 L -727.577 1518.874 Z  M -730.649 1518.791 L -730.649 1518.791 L -730.649 1518.791 Q -730.649 1515.653 -731.861 1513.943 L -731.861 1513.943 L -731.861 1513.943 Q -733.073 1512.234 -735.347 1512.234 L -735.347 1512.234 L -735.347 1512.234 Q -738.385 1512.234 -739.713 1515.056 L -739.713 1515.056 L -739.713 1522.825 L -739.713 1522.825 Q -738.302 1525.648 -735.314 1525.648 L -735.314 1525.648 L -735.314 1525.648 Q -733.106 1525.648 -731.877 1523.938 L -731.877 1523.938 L -731.877 1523.938 Q -730.649 1522.228 -730.649 1518.791 Z  M -715.027 1509.859 L -715.027 1512.715 L -715.027 1512.715 Q -715.724 1512.599 -716.537 1512.599 L -716.537 1512.599 L -716.537 1512.599 Q -719.559 1512.599 -720.638 1515.172 L -720.638 1515.172 L -720.638 1527.922 L -723.709 1527.922 L -723.709 1509.959 L -720.721 1509.959 L -720.671 1512.034 L -720.671 1512.034 Q -719.16 1509.627 -716.388 1509.627 L -716.388 1509.627 L -716.388 1509.627 Q -715.491 1509.627 -715.027 1509.859 L -715.027 1509.859 L -715.027 1509.859 Z  M -698.558 1527.922 L -701.779 1527.922 L -701.779 1527.922 Q -702.044 1527.391 -702.21 1526.029 L -702.21 1526.029 L -702.21 1526.029 Q -704.352 1528.254 -707.323 1528.254 L -707.323 1528.254 L -707.323 1528.254 Q -709.98 1528.254 -711.681 1526.752 L -711.681 1526.752 L -711.681 1526.752 Q -713.383 1525.249 -713.383 1522.942 L -713.383 1522.942 L -713.383 1522.942 Q -713.383 1520.136 -711.25 1518.584 L -711.25 1518.584 L -711.25 1518.584 Q -709.116 1517.031 -705.248 1517.031 L -705.248 1517.031 L -702.26 1517.031 L -702.26 1515.62 L -702.26 1515.62 Q -702.26 1514.01 -703.223 1513.055 L -703.223 1513.055 L -703.223 1513.055 Q -704.186 1512.101 -706.062 1512.101 L -706.062 1512.101 L -706.062 1512.101 Q -707.705 1512.101 -708.818 1512.931 L -708.818 1512.931 L -708.818 1512.931 Q -709.93 1513.761 -709.93 1514.94 L -709.93 1514.94 L -713.018 1514.94 L -713.018 1514.94 Q -713.018 1513.595 -712.063 1512.341 L -712.063 1512.341 L -712.063 1512.341 Q -711.109 1511.088 -709.473 1510.358 L -709.473 1510.358 L -709.473 1510.358 Q -707.838 1509.627 -705.879 1509.627 L -705.879 1509.627 L -705.879 1509.627 Q -702.775 1509.627 -701.015 1511.179 L -701.015 1511.179 L -701.015 1511.179 Q -699.255 1512.732 -699.189 1515.454 L -699.189 1515.454 L -699.189 1523.722 L -699.189 1523.722 Q -699.189 1526.195 -698.558 1527.656 L -698.558 1527.656 L -698.558 1527.922 L -698.558 1527.922 Z  M -706.875 1525.581 L -706.875 1525.581 L -706.875 1525.581 Q -705.431 1525.581 -704.136 1524.834 L -704.136 1524.834 L -704.136 1524.834 Q -702.841 1524.087 -702.26 1522.892 L -702.26 1522.892 L -702.26 1519.206 L -704.667 1519.206 L -704.667 1519.206 Q -710.312 1519.206 -710.312 1522.51 L -710.312 1522.51 L -710.312 1522.51 Q -710.312 1523.954 -709.349 1524.768 L -709.349 1524.768 L -709.349 1524.768 Q -708.386 1525.581 -706.875 1525.581 Z  M -685.692 1509.859 L -685.692 1512.715 L -685.692 1512.715 Q -686.389 1512.599 -687.202 1512.599 L -687.202 1512.599 L -687.202 1512.599 Q -690.224 1512.599 -691.303 1515.172 L -691.303 1515.172 L -691.303 1527.922 L -694.374 1527.922 L -694.374 1509.959 L -691.386 1509.959 L -691.336 1512.034 L -691.336 1512.034 Q -689.825 1509.627 -687.053 1509.627 L -687.053 1509.627 L -687.053 1509.627 Q -686.156 1509.627 -685.692 1509.859 L -685.692 1509.859 L -685.692 1509.859 Z  M -681.176 1509.959 L -676.694 1523.423 L -672.51 1509.959 L -669.223 1509.959 L -676.445 1530.694 L -676.445 1530.694 Q -678.121 1535.177 -681.774 1535.177 L -681.774 1535.177 L -682.355 1535.127 L -683.5 1534.911 L -683.5 1532.421 L -682.67 1532.487 L -682.67 1532.487 Q -681.11 1532.487 -680.238 1531.857 L -680.238 1531.857 L -680.238 1531.857 Q -679.366 1531.226 -678.802 1529.549 L -678.802 1529.549 L -678.121 1527.723 L -684.53 1509.959 L -681.176 1509.959 L -681.176 1509.959 Z  M -784.703 1503.75 L -781.499 1503.75 L -781.499 1520.186 L -781.499 1520.186 Q -781.516 1523.606 -783.649 1525.78 L -783.649 1525.78 L -783.649 1525.78 Q -785.782 1527.955 -789.435 1528.221 L -789.435 1528.221 L -790.281 1528.254 L -790.281 1528.254 Q -794.249 1528.254 -796.607 1526.112 L -796.607 1526.112 L -796.607 1526.112 Q -798.964 1523.971 -798.997 1520.219 L -798.997 1520.219 L -798.997 1503.75 L -795.843 1503.75 L -795.843 1520.119 L -795.843 1520.119 Q -795.843 1522.742 -794.399 1524.195 L -794.399 1524.195 L -794.399 1524.195 Q -792.954 1525.648 -790.281 1525.648 L -790.281 1525.648 L -790.281 1525.648 Q -787.575 1525.648 -786.139 1524.203 L -786.139 1524.203 L -786.139 1524.203 Q -784.703 1522.759 -784.703 1520.136 L -784.703 1520.136 L -784.703 1503.75 L -784.703 1503.75 Z  M -773.049 1503.75 L -773.049 1527.922 L -776.237 1527.922 L -776.237 1503.75 L -773.049 1503.75 L -773.049 1503.75 Z  M -1053.35 1527.922 L -1058.596 1518.144 L -1064.274 1518.144 L -1064.274 1527.922 L -1067.478 1527.922 L -1067.478 1503.75 L -1059.476 1503.75 L -1059.476 1503.75 Q -1055.392 1503.75 -1053.192 1505.609 L -1053.192 1505.609 L -1053.192 1505.609 Q -1050.992 1507.469 -1050.992 1511.022 L -1050.992 1511.022 L -1050.992 1511.022 Q -1050.992 1513.279 -1052.213 1514.956 L -1052.213 1514.956 L -1052.213 1514.956 Q -1053.433 1516.633 -1055.608 1517.463 L -1055.608 1517.463 L -1049.93 1527.723 L -1049.93 1527.922 L -1053.35 1527.922 L -1053.35 1527.922 Z  M -1064.274 1506.373 L -1064.274 1515.537 L -1059.376 1515.537 L -1059.376 1515.537 Q -1057.002 1515.537 -1055.599 1514.309 L -1055.599 1514.309 L -1055.599 1514.309 Q -1054.197 1513.08 -1054.197 1511.022 L -1054.197 1511.022 L -1054.197 1511.022 Q -1054.197 1508.78 -1055.533 1507.585 L -1055.533 1507.585 L -1055.533 1507.585 Q -1056.869 1506.39 -1059.393 1506.373 L -1059.393 1506.373 L -1064.274 1506.373 L -1064.274 1506.373 Z  M -1039.554 1528.254 L -1039.554 1528.254 L -1039.554 1528.254 Q -1043.206 1528.254 -1045.497 1525.855 L -1045.497 1525.855 L -1045.497 1525.855 Q -1047.788 1523.456 -1047.788 1519.439 L -1047.788 1519.439 L -1047.788 1518.874 L -1047.788 1518.874 Q -1047.788 1516.201 -1046.767 1514.101 L -1046.767 1514.101 L -1046.767 1514.101 Q -1045.746 1512.001 -1043.912 1510.814 L -1043.912 1510.814 L -1043.912 1510.814 Q -1042.077 1509.627 -1039.936 1509.627 L -1039.936 1509.627 L -1039.936 1509.627 Q -1036.433 1509.627 -1034.49 1511.935 L -1034.49 1511.935 L -1034.49 1511.935 Q -1032.548 1514.242 -1032.548 1518.542 L -1032.548 1518.542 L -1032.548 1519.82 L -1044.717 1519.82 L -1044.717 1519.82 Q -1044.651 1522.477 -1043.165 1524.112 L -1043.165 1524.112 L -1043.165 1524.112 Q -1041.679 1525.747 -1039.388 1525.747 L -1039.388 1525.747 L -1039.388 1525.747 Q -1037.761 1525.747 -1036.632 1525.083 L -1036.632 1525.083 L -1036.632 1525.083 Q -1035.503 1524.419 -1034.656 1523.323 L -1034.656 1523.323 L -1032.781 1524.784 L -1032.781 1524.784 Q -1035.038 1528.254 -1039.554 1528.254 Z  M -1039.936 1512.151 L -1039.936 1512.151 L -1039.936 1512.151 Q -1041.795 1512.151 -1043.057 1513.504 L -1043.057 1513.504 L -1043.057 1513.504 Q -1044.319 1514.857 -1044.617 1517.297 L -1044.617 1517.297 L -1035.619 1517.297 L -1035.619 1517.065 L -1035.619 1517.065 Q -1035.752 1514.724 -1036.881 1513.437 L -1036.881 1513.437 L -1036.881 1513.437 Q -1038.01 1512.151 -1039.936 1512.151 Z  M -1014.685 1527.922 L -1017.906 1527.922 L -1017.906 1527.922 Q -1018.171 1527.391 -1018.337 1526.029 L -1018.337 1526.029 L -1018.337 1526.029 Q -1020.479 1528.254 -1023.45 1528.254 L -1023.45 1528.254 L -1023.45 1528.254 Q -1026.107 1528.254 -1027.808 1526.752 L -1027.808 1526.752 L -1027.808 1526.752 Q -1029.51 1525.249 -1029.51 1522.942 L -1029.51 1522.942 L -1029.51 1522.942 Q -1029.51 1520.136 -1027.377 1518.584 L -1027.377 1518.584 L -1027.377 1518.584 Q -1025.243 1517.031 -1021.375 1517.031 L -1021.375 1517.031 L -1018.387 1517.031 L -1018.387 1515.62 L -1018.387 1515.62 Q -1018.387 1514.01 -1019.35 1513.055 L -1019.35 1513.055 L -1019.35 1513.055 Q -1020.313 1512.101 -1022.189 1512.101 L -1022.189 1512.101 L -1022.189 1512.101 Q -1023.832 1512.101 -1024.945 1512.931 L -1024.945 1512.931 L -1024.945 1512.931 Q -1026.057 1513.761 -1026.057 1514.94 L -1026.057 1514.94 L -1029.145 1514.94 L -1029.145 1514.94 Q -1029.145 1513.595 -1028.19 1512.341 L -1028.19 1512.341 L -1028.19 1512.341 Q -1027.236 1511.088 -1025.6 1510.358 L -1025.6 1510.358 L -1025.6 1510.358 Q -1023.965 1509.627 -1022.006 1509.627 L -1022.006 1509.627 L -1022.006 1509.627 Q -1018.902 1509.627 -1017.142 1511.179 L -1017.142 1511.179 L -1017.142 1511.179 Q -1015.382 1512.732 -1015.316 1515.454 L -1015.316 1515.454 L -1015.316 1523.722 L -1015.316 1523.722 Q -1015.316 1526.195 -1014.685 1527.656 L -1014.685 1527.656 L -1014.685 1527.922 L -1014.685 1527.922 Z  M -1023.002 1525.581 L -1023.002 1525.581 L -1023.002 1525.581 Q -1021.558 1525.581 -1020.263 1524.834 L -1020.263 1524.834 L -1020.263 1524.834 Q -1018.968 1524.087 -1018.387 1522.892 L -1018.387 1522.892 L -1018.387 1519.206 L -1020.794 1519.206 L -1020.794 1519.206 Q -1026.439 1519.206 -1026.439 1522.51 L -1026.439 1522.51 L -1026.439 1522.51 Q -1026.439 1523.954 -1025.476 1524.768 L -1025.476 1524.768 L -1025.476 1524.768 Q -1024.513 1525.581 -1023.002 1525.581 Z  M -1003.296 1525.747 L -1003.296 1525.747 L -1003.296 1525.747 Q -1001.653 1525.747 -1000.424 1524.751 L -1000.424 1524.751 L -1000.424 1524.751 Q -999.196 1523.755 -999.063 1522.261 L -999.063 1522.261 L -996.157 1522.261 L -996.157 1522.261 Q -996.24 1523.805 -997.22 1525.199 L -997.22 1525.199 L -997.22 1525.199 Q -998.199 1526.594 -999.835 1527.424 L -999.835 1527.424 L -999.835 1527.424 Q -1001.47 1528.254 -1003.296 1528.254 L -1003.296 1528.254 L -1003.296 1528.254 Q -1006.965 1528.254 -1009.132 1525.805 L -1009.132 1525.805 L -1009.132 1525.805 Q -1011.298 1523.357 -1011.298 1519.107 L -1011.298 1519.107 L -1011.298 1518.592 L -1011.298 1518.592 Q -1011.298 1515.969 -1010.335 1513.927 L -1010.335 1513.927 L -1010.335 1513.927 Q -1009.372 1511.885 -1007.571 1510.756 L -1007.571 1510.756 L -1007.571 1510.756 Q -1005.77 1509.627 -1003.313 1509.627 L -1003.313 1509.627 L -1003.313 1509.627 Q -1000.291 1509.627 -998.291 1511.437 L -998.291 1511.437 L -998.291 1511.437 Q -996.29 1513.246 -996.157 1516.135 L -996.157 1516.135 L -999.063 1516.135 L -999.063 1516.135 Q -999.196 1514.392 -1000.383 1513.271 L -1000.383 1513.271 L -1000.383 1513.271 Q -1001.57 1512.151 -1003.313 1512.151 L -1003.313 1512.151 L -1003.313 1512.151 Q -1005.654 1512.151 -1006.94 1513.836 L -1006.94 1513.836 L -1006.94 1513.836 Q -1008.227 1515.521 -1008.227 1518.708 L -1008.227 1518.708 L -1008.227 1519.289 L -1008.227 1519.289 Q -1008.227 1522.394 -1006.948 1524.07 L -1006.948 1524.07 L -1006.948 1524.07 Q -1005.67 1525.747 -1003.296 1525.747 Z  M -991.609 1505.609 L -988.537 1505.609 L -988.537 1509.959 L -985.184 1509.959 L -985.184 1512.333 L -988.537 1512.333 L -988.537 1523.473 L -988.537 1523.473 Q -988.537 1524.552 -988.089 1525.091 L -988.089 1525.091 L -988.089 1525.091 Q -987.641 1525.631 -986.562 1525.631 L -986.562 1525.631 L -986.562 1525.631 Q -986.031 1525.631 -985.101 1525.432 L -985.101 1525.432 L -985.101 1527.922 L -985.101 1527.922 Q -986.313 1528.254 -987.458 1528.254 L -987.458 1528.254 L -987.458 1528.254 Q -989.517 1528.254 -990.563 1527.009 L -990.563 1527.009 L -990.563 1527.009 Q -991.609 1525.764 -991.609 1523.473 L -991.609 1523.473 L -991.609 1512.333 L -994.879 1512.333 L -994.879 1509.959 L -991.609 1509.959 L -991.609 1505.609 L -991.609 1505.609 Z  M -970.906 1503.75 L -980.984 1529.997 L -983.623 1529.997 L -973.53 1503.75 L -970.906 1503.75 L -970.906 1503.75 Z  M -950.404 1503.75 L -950.404 1506.373 L -958.173 1506.373 L -958.173 1527.922 L -961.344 1527.922 L -961.344 1506.373 L -969.097 1506.373 L -969.097 1503.75 L -950.404 1503.75 L -950.404 1503.75 Z  M -947.1 1509.959 L -942.617 1523.423 L -938.434 1509.959 L -935.147 1509.959 L -942.368 1530.694 L -942.368 1530.694 Q -944.045 1535.177 -947.698 1535.177 L -947.698 1535.177 L -948.279 1535.127 L -949.424 1534.911 L -949.424 1532.421 L -948.594 1532.487 L -948.594 1532.487 Q -947.033 1532.487 -946.162 1531.857 L -946.162 1531.857 L -946.162 1531.857 Q -945.29 1531.226 -944.726 1529.549 L -944.726 1529.549 L -944.045 1527.723 L -950.453 1509.959 L -947.1 1509.959 L -947.1 1509.959 Z  M -917.234 1518.858 L -917.234 1519.14 L -917.234 1519.14 Q -917.234 1523.24 -919.11 1525.747 L -919.11 1525.747 L -919.11 1525.747 Q -920.986 1528.254 -924.19 1528.254 L -924.19 1528.254 L -924.19 1528.254 Q -927.46 1528.254 -929.336 1526.179 L -929.336 1526.179 L -929.336 1534.828 L -932.407 1534.828 L -932.407 1509.959 L -929.602 1509.959 L -929.452 1511.951 L -929.452 1511.951 Q -927.576 1509.627 -924.24 1509.627 L -924.24 1509.627 L -924.24 1509.627 Q -921.002 1509.627 -919.118 1512.068 L -919.118 1512.068 L -919.118 1512.068 Q -917.234 1514.508 -917.234 1518.858 L -917.234 1518.858 L -917.234 1518.858 Z  M -920.305 1518.791 L -920.305 1518.791 L -920.305 1518.791 Q -920.305 1515.753 -921.6 1513.993 L -921.6 1513.993 L -921.6 1513.993 Q -922.895 1512.234 -925.153 1512.234 L -925.153 1512.234 L -925.153 1512.234 Q -927.942 1512.234 -929.336 1514.707 L -929.336 1514.707 L -929.336 1523.29 L -929.336 1523.29 Q -927.958 1525.747 -925.119 1525.747 L -925.119 1525.747 L -925.119 1525.747 Q -922.911 1525.747 -921.608 1523.996 L -921.608 1523.996 L -921.608 1523.996 Q -920.305 1522.244 -920.305 1518.791 Z  M -905.878 1528.254 L -905.878 1528.254 L -905.878 1528.254 Q -909.531 1528.254 -911.822 1525.855 L -911.822 1525.855 L -911.822 1525.855 Q -914.113 1523.456 -914.113 1519.439 L -914.113 1519.439 L -914.113 1518.874 L -914.113 1518.874 Q -914.113 1516.201 -913.092 1514.101 L -913.092 1514.101 L -913.092 1514.101 Q -912.071 1512.001 -910.236 1510.814 L -910.236 1510.814 L -910.236 1510.814 Q -908.402 1509.627 -906.26 1509.627 L -906.26 1509.627 L -906.26 1509.627 Q -902.757 1509.627 -900.815 1511.935 L -900.815 1511.935 L -900.815 1511.935 Q -898.872 1514.242 -898.872 1518.542 L -898.872 1518.542 L -898.872 1519.82 L -911.041 1519.82 L -911.041 1519.82 Q -910.975 1522.477 -909.489 1524.112 L -909.489 1524.112 L -909.489 1524.112 Q -908.003 1525.747 -905.712 1525.747 L -905.712 1525.747 L -905.712 1525.747 Q -904.085 1525.747 -902.956 1525.083 L -902.956 1525.083 L -902.956 1525.083 Q -901.827 1524.419 -900.981 1523.323 L -900.981 1523.323 L -899.105 1524.784 L -899.105 1524.784 Q -901.363 1528.254 -905.878 1528.254 Z  M -906.26 1512.151 L -906.26 1512.151 L -906.26 1512.151 Q -908.119 1512.151 -909.381 1513.504 L -909.381 1513.504 L -909.381 1513.504 Q -910.643 1514.857 -910.942 1517.297 L -910.942 1517.297 L -901.944 1517.297 L -901.944 1517.065 L -901.944 1517.065 Q -902.076 1514.724 -903.205 1513.437 L -903.205 1513.437 L -903.205 1513.437 Q -904.334 1512.151 -906.26 1512.151 Z  M -887.716 1517.148 L -887.716 1517.148 L -887.716 1517.148 Q -891.817 1515.969 -893.684 1514.251 L -893.684 1514.251 L -893.684 1514.251 Q -895.552 1512.532 -895.552 1510.009 L -895.552 1510.009 L -895.552 1510.009 Q -895.552 1507.153 -893.269 1505.286 L -893.269 1505.286 L -893.269 1505.286 Q -890.987 1503.418 -887.334 1503.418 L -887.334 1503.418 L -887.334 1503.418 Q -884.844 1503.418 -882.893 1504.381 L -882.893 1504.381 L -882.893 1504.381 Q -880.943 1505.344 -879.872 1507.037 L -879.872 1507.037 L -879.872 1507.037 Q -878.801 1508.731 -878.801 1510.739 L -878.801 1510.739 L -882.005 1510.739 L -882.005 1510.739 Q -882.005 1508.548 -883.4 1507.295 L -883.4 1507.295 L -883.4 1507.295 Q -884.794 1506.041 -887.334 1506.041 L -887.334 1506.041 L -887.334 1506.041 Q -889.692 1506.041 -891.011 1507.079 L -891.011 1507.079 L -891.011 1507.079 Q -892.331 1508.116 -892.331 1509.959 L -892.331 1509.959 L -892.331 1509.959 Q -892.331 1511.437 -891.078 1512.458 L -891.078 1512.458 L -891.078 1512.458 Q -889.824 1513.479 -886.811 1514.325 L -886.811 1514.325 L -886.811 1514.325 Q -883.798 1515.172 -882.096 1516.193 L -882.096 1516.193 L -882.096 1516.193 Q -880.395 1517.214 -879.573 1518.575 L -879.573 1518.575 L -879.573 1518.575 Q -878.751 1519.937 -878.751 1521.779 L -878.751 1521.779 L -878.751 1521.779 Q -878.751 1524.718 -881.042 1526.486 L -881.042 1526.486 L -881.042 1526.486 Q -883.333 1528.254 -887.168 1528.254 L -887.168 1528.254 L -887.168 1528.254 Q -889.658 1528.254 -891.817 1527.299 L -891.817 1527.299 L -891.817 1527.299 Q -893.975 1526.345 -895.145 1524.685 L -895.145 1524.685 L -895.145 1524.685 Q -896.316 1523.025 -896.316 1520.916 L -896.316 1520.916 L -893.112 1520.916 L -893.112 1520.916 Q -893.112 1523.108 -891.493 1524.378 L -891.493 1524.378 L -891.493 1524.378 Q -889.874 1525.648 -887.168 1525.648 L -887.168 1525.648 L -887.168 1525.648 Q -884.645 1525.648 -883.3 1524.618 L -883.3 1524.618 L -883.3 1524.618 Q -881.955 1523.589 -881.955 1521.813 L -881.955 1521.813 L -881.955 1521.813 Q -881.955 1520.036 -883.2 1519.065 L -883.2 1519.065 L -883.2 1519.065 Q -884.446 1518.094 -887.716 1517.148 Z  M -867.944 1525.747 L -867.944 1525.747 L -867.944 1525.747 Q -866.3 1525.747 -865.072 1524.751 L -865.072 1524.751 L -865.072 1524.751 Q -863.843 1523.755 -863.71 1522.261 L -863.71 1522.261 L -860.805 1522.261 L -860.805 1522.261 Q -860.888 1523.805 -861.867 1525.199 L -861.867 1525.199 L -861.867 1525.199 Q -862.847 1526.594 -864.482 1527.424 L -864.482 1527.424 L -864.482 1527.424 Q -866.117 1528.254 -867.944 1528.254 L -867.944 1528.254 L -867.944 1528.254 Q -871.613 1528.254 -873.779 1525.805 L -873.779 1525.805 L -873.779 1525.805 Q -875.946 1523.357 -875.946 1519.107 L -875.946 1519.107 L -875.946 1518.592 L -875.946 1518.592 Q -875.946 1515.969 -874.983 1513.927 L -874.983 1513.927 L -874.983 1513.927 Q -874.02 1511.885 -872.219 1510.756 L -872.219 1510.756 L -872.219 1510.756 Q -870.417 1509.627 -867.96 1509.627 L -867.96 1509.627 L -867.96 1509.627 Q -864.939 1509.627 -862.938 1511.437 L -862.938 1511.437 L -862.938 1511.437 Q -860.938 1513.246 -860.805 1516.135 L -860.805 1516.135 L -863.71 1516.135 L -863.71 1516.135 Q -863.843 1514.392 -865.03 1513.271 L -865.03 1513.271 L -865.03 1513.271 Q -866.217 1512.151 -867.96 1512.151 L -867.96 1512.151 L -867.96 1512.151 Q -870.301 1512.151 -871.588 1513.836 L -871.588 1513.836 L -871.588 1513.836 Q -872.874 1515.521 -872.874 1518.708 L -872.874 1518.708 L -872.874 1519.289 L -872.874 1519.289 Q -872.874 1522.394 -871.596 1524.07 L -871.596 1524.07 L -871.596 1524.07 Q -870.318 1525.747 -867.944 1525.747 Z  M -848.669 1509.859 L -848.669 1512.715 L -848.669 1512.715 Q -849.366 1512.599 -850.18 1512.599 L -850.18 1512.599 L -850.18 1512.599 Q -853.201 1512.599 -854.281 1515.172 L -854.281 1515.172 L -854.281 1527.922 L -857.352 1527.922 L -857.352 1509.959 L -854.364 1509.959 L -854.314 1512.034 L -854.314 1512.034 Q -852.803 1509.627 -850.031 1509.627 L -850.031 1509.627 L -850.031 1509.627 Q -849.134 1509.627 -848.669 1509.859 L -848.669 1509.859 L -848.669 1509.859 Z  M -842.51 1509.959 L -842.51 1527.922 L -845.581 1527.922 L -845.581 1509.959 L -842.51 1509.959 L -842.51 1509.959 Z  M -845.83 1505.194 L -845.83 1505.194 L -845.83 1505.194 Q -845.83 1504.447 -845.374 1503.933 L -845.374 1503.933 L -845.374 1503.933 Q -844.917 1503.418 -844.021 1503.418 L -844.021 1503.418 L -844.021 1503.418 Q -843.124 1503.418 -842.659 1503.933 L -842.659 1503.933 L -842.659 1503.933 Q -842.195 1504.447 -842.195 1505.194 L -842.195 1505.194 L -842.195 1505.194 Q -842.195 1505.942 -842.659 1506.44 L -842.659 1506.44 L -842.659 1506.44 Q -843.124 1506.938 -844.021 1506.938 L -844.021 1506.938 L -844.021 1506.938 Q -844.917 1506.938 -845.374 1506.44 L -845.374 1506.44 L -845.374 1506.44 Q -845.83 1505.942 -845.83 1505.194 Z  M -822.422 1518.858 L -822.422 1519.14 L -822.422 1519.14 Q -822.422 1523.24 -824.298 1525.747 L -824.298 1525.747 L -824.298 1525.747 Q -826.174 1528.254 -829.378 1528.254 L -829.378 1528.254 L -829.378 1528.254 Q -832.649 1528.254 -834.525 1526.179 L -834.525 1526.179 L -834.525 1534.828 L -837.596 1534.828 L -837.596 1509.959 L -834.79 1509.959 L -834.641 1511.951 L -834.641 1511.951 Q -832.765 1509.627 -829.428 1509.627 L -829.428 1509.627 L -829.428 1509.627 Q -826.191 1509.627 -824.306 1512.068 L -824.306 1512.068 L -824.306 1512.068 Q -822.422 1514.508 -822.422 1518.858 L -822.422 1518.858 L -822.422 1518.858 Z  M -825.493 1518.791 L -825.493 1518.791 L -825.493 1518.791 Q -825.493 1515.753 -826.788 1513.993 L -826.788 1513.993 L -826.788 1513.993 Q -828.083 1512.234 -830.341 1512.234 L -830.341 1512.234 L -830.341 1512.234 Q -833.13 1512.234 -834.525 1514.707 L -834.525 1514.707 L -834.525 1523.29 L -834.525 1523.29 Q -833.147 1525.747 -830.308 1525.747 L -830.308 1525.747 L -830.308 1525.747 Q -828.1 1525.747 -826.797 1523.996 L -826.797 1523.996 L -826.797 1523.996 Q -825.493 1522.244 -825.493 1518.791 Z  M -817.425 1505.609 L -814.354 1505.609 L -814.354 1509.959 L -811 1509.959 L -811 1512.333 L -814.354 1512.333 L -814.354 1523.473 L -814.354 1523.473 Q -814.354 1524.552 -813.906 1525.091 L -813.906 1525.091 L -813.906 1525.091 Q -813.457 1525.631 -812.378 1525.631 L -812.378 1525.631 L -812.378 1525.631 Q -811.847 1525.631 -810.917 1525.432 L -810.917 1525.432 L -810.917 1527.922 L -810.917 1527.922 Q -812.129 1528.254 -813.275 1528.254 L -813.275 1528.254 L -813.275 1528.254 Q -815.333 1528.254 -816.379 1527.009 L -816.379 1527.009 L -816.379 1527.009 Q -817.425 1525.764 -817.425 1523.473 L -817.425 1523.473 L -817.425 1512.333 L -820.696 1512.333 L -820.696 1509.959 L -817.425 1509.959 L -817.425 1505.609 L -817.425 1505.609 Z " fill="rgb(0,0,0)"/><path d=" M -1125.235 1518.874 L -1125.235 1519.14 L -1125.235 1519.14 Q -1125.235 1523.257 -1127.127 1525.755 L -1127.127 1525.755 L -1127.127 1525.755 Q -1129.02 1528.254 -1132.207 1528.254 L -1132.207 1528.254 L -1132.207 1528.254 Q -1135.611 1528.254 -1137.47 1525.847 L -1137.47 1525.847 L -1137.619 1527.922 L -1140.442 1527.922 L -1140.442 1502.422 L -1137.37 1502.422 L -1137.37 1511.935 L -1137.37 1511.935 Q -1135.511 1509.627 -1132.24 1509.627 L -1132.24 1509.627 L -1132.24 1509.627 Q -1128.97 1509.627 -1127.102 1512.101 L -1127.102 1512.101 L -1127.102 1512.101 Q -1125.235 1514.574 -1125.235 1518.874 L -1125.235 1518.874 L -1125.235 1518.874 Z  M -1128.306 1518.791 L -1128.306 1518.791 L -1128.306 1518.791 Q -1128.306 1515.653 -1129.518 1513.943 L -1129.518 1513.943 L -1129.518 1513.943 Q -1130.73 1512.234 -1133.004 1512.234 L -1133.004 1512.234 L -1133.004 1512.234 Q -1136.042 1512.234 -1137.37 1515.056 L -1137.37 1515.056 L -1137.37 1522.825 L -1137.37 1522.825 Q -1135.959 1525.648 -1132.971 1525.648 L -1132.971 1525.648 L -1132.971 1525.648 Q -1130.763 1525.648 -1129.534 1523.938 L -1129.534 1523.938 L -1129.534 1523.938 Q -1128.306 1522.228 -1128.306 1518.791 Z  M -1118.03 1502.422 L -1118.03 1527.922 L -1121.101 1527.922 L -1121.101 1502.422 L -1118.03 1502.422 L -1118.03 1502.422 Z  M -1101.959 1527.922 L -1102.026 1526.146 L -1102.026 1526.146 Q -1103.819 1528.254 -1107.288 1528.254 L -1107.288 1528.254 L -1107.288 1528.254 Q -1110.16 1528.254 -1111.663 1526.586 L -1111.663 1526.586 L -1111.663 1526.586 Q -1113.165 1524.917 -1113.182 1521.647 L -1113.182 1521.647 L -1113.182 1509.959 L -1110.111 1509.959 L -1110.111 1521.564 L -1110.111 1521.564 Q -1110.111 1525.648 -1106.79 1525.648 L -1106.79 1525.648 L -1106.79 1525.648 Q -1103.271 1525.648 -1102.109 1523.025 L -1102.109 1523.025 L -1102.109 1509.959 L -1099.037 1509.959 L -1099.037 1527.922 L -1101.959 1527.922 L -1101.959 1527.922 Z  M -1086.918 1528.254 L -1086.918 1528.254 L -1086.918 1528.254 Q -1090.571 1528.254 -1092.862 1525.855 L -1092.862 1525.855 L -1092.862 1525.855 Q -1095.153 1523.456 -1095.153 1519.439 L -1095.153 1519.439 L -1095.153 1518.874 L -1095.153 1518.874 Q -1095.153 1516.201 -1094.132 1514.101 L -1094.132 1514.101 L -1094.132 1514.101 Q -1093.111 1512.001 -1091.276 1510.814 L -1091.276 1510.814 L -1091.276 1510.814 Q -1089.442 1509.627 -1087.3 1509.627 L -1087.3 1509.627 L -1087.3 1509.627 Q -1083.797 1509.627 -1081.855 1511.935 L -1081.855 1511.935 L -1081.855 1511.935 Q -1079.912 1514.242 -1079.912 1518.542 L -1079.912 1518.542 L -1079.912 1519.82 L -1092.081 1519.82 L -1092.081 1519.82 Q -1092.015 1522.477 -1090.529 1524.112 L -1090.529 1524.112 L -1090.529 1524.112 Q -1089.043 1525.747 -1086.752 1525.747 L -1086.752 1525.747 L -1086.752 1525.747 Q -1085.125 1525.747 -1083.996 1525.083 L -1083.996 1525.083 L -1083.996 1525.083 Q -1082.867 1524.419 -1082.021 1523.323 L -1082.021 1523.323 L -1080.145 1524.784 L -1080.145 1524.784 Q -1082.403 1528.254 -1086.918 1528.254 Z  M -1087.3 1512.151 L -1087.3 1512.151 L -1087.3 1512.151 Q -1089.159 1512.151 -1090.421 1513.504 L -1090.421 1513.504 L -1090.421 1513.504 Q -1091.683 1514.857 -1091.982 1517.297 L -1091.982 1517.297 L -1082.984 1517.297 L -1082.984 1517.065 L -1082.984 1517.065 Q -1083.116 1514.724 -1084.245 1513.437 L -1084.245 1513.437 L -1084.245 1513.437 Q -1085.374 1512.151 -1087.3 1512.151 Z " fill="rgb(56,172,255)"/><path d=" M -1190.977 1527.922 L -1194.198 1527.922 L -1194.198 1527.922 Q -1194.463 1527.391 -1194.629 1526.029 L -1194.629 1526.029 L -1194.629 1526.029 Q -1196.771 1528.254 -1199.742 1528.254 L -1199.742 1528.254 L -1199.742 1528.254 Q -1202.399 1528.254 -1204.1 1526.752 L -1204.1 1526.752 L -1204.1 1526.752 Q -1205.802 1525.249 -1205.802 1522.942 L -1205.802 1522.942 L -1205.802 1522.942 Q -1205.802 1520.136 -1203.669 1518.584 L -1203.669 1518.584 L -1203.669 1518.584 Q -1201.535 1517.031 -1197.667 1517.031 L -1197.667 1517.031 L -1194.679 1517.031 L -1194.679 1515.62 L -1194.679 1515.62 Q -1194.679 1514.01 -1195.642 1513.055 L -1195.642 1513.055 L -1195.642 1513.055 Q -1196.605 1512.101 -1198.481 1512.101 L -1198.481 1512.101 L -1198.481 1512.101 Q -1200.124 1512.101 -1201.237 1512.931 L -1201.237 1512.931 L -1201.237 1512.931 Q -1202.349 1513.761 -1202.349 1514.94 L -1202.349 1514.94 L -1205.437 1514.94 L -1205.437 1514.94 Q -1205.437 1513.595 -1204.482 1512.341 L -1204.482 1512.341 L -1204.482 1512.341 Q -1203.528 1511.088 -1201.892 1510.358 L -1201.892 1510.358 L -1201.892 1510.358 Q -1200.257 1509.627 -1198.298 1509.627 L -1198.298 1509.627 L -1198.298 1509.627 Q -1195.194 1509.627 -1193.434 1511.179 L -1193.434 1511.179 L -1193.434 1511.179 Q -1191.674 1512.732 -1191.608 1515.454 L -1191.608 1515.454 L -1191.608 1523.722 L -1191.608 1523.722 Q -1191.608 1526.195 -1190.977 1527.656 L -1190.977 1527.656 L -1190.977 1527.922 L -1190.977 1527.922 Z  M -1199.294 1525.581 L -1199.294 1525.581 L -1199.294 1525.581 Q -1197.85 1525.581 -1196.555 1524.834 L -1196.555 1524.834 L -1196.555 1524.834 Q -1195.26 1524.087 -1194.679 1522.892 L -1194.679 1522.892 L -1194.679 1519.206 L -1197.086 1519.206 L -1197.086 1519.206 Q -1202.731 1519.206 -1202.731 1522.51 L -1202.731 1522.51 L -1202.731 1522.51 Q -1202.731 1523.954 -1201.768 1524.768 L -1201.768 1524.768 L -1201.768 1524.768 Q -1200.805 1525.581 -1199.294 1525.581 Z  M -1186.793 1509.959 L -1183.888 1509.959 L -1183.788 1512.217 L -1183.788 1512.217 Q -1181.73 1509.627 -1178.409 1509.627 L -1178.409 1509.627 L -1178.409 1509.627 Q -1172.715 1509.627 -1172.665 1516.052 L -1172.665 1516.052 L -1172.665 1527.922 L -1175.737 1527.922 L -1175.737 1516.035 L -1175.737 1516.035 Q -1175.753 1514.093 -1176.625 1513.163 L -1176.625 1513.163 L -1176.625 1513.163 Q -1177.496 1512.234 -1179.339 1512.234 L -1179.339 1512.234 L -1179.339 1512.234 Q -1180.833 1512.234 -1181.962 1513.03 L -1181.962 1513.03 L -1181.962 1513.03 Q -1183.091 1513.827 -1183.722 1515.122 L -1183.722 1515.122 L -1183.722 1527.922 L -1186.793 1527.922 L -1186.793 1509.959 L -1186.793 1509.959 Z  M -1168.781 1519.024 L -1168.781 1518.791 L -1168.781 1518.791 Q -1168.781 1514.657 -1166.822 1512.142 L -1166.822 1512.142 L -1166.822 1512.142 Q -1164.863 1509.627 -1161.692 1509.627 L -1161.692 1509.627 L -1161.692 1509.627 Q -1158.537 1509.627 -1156.695 1511.785 L -1156.695 1511.785 L -1156.695 1502.422 L -1153.623 1502.422 L -1153.623 1527.922 L -1156.446 1527.922 L -1156.595 1525.996 L -1156.595 1525.996 Q -1158.438 1528.254 -1161.725 1528.254 L -1161.725 1528.254 L -1161.725 1528.254 Q -1164.846 1528.254 -1166.813 1525.697 L -1166.813 1525.697 L -1166.813 1525.697 Q -1168.781 1523.141 -1168.781 1519.024 L -1168.781 1519.024 L -1168.781 1519.024 Z  M -1165.709 1519.14 L -1165.709 1519.14 L -1165.709 1519.14 Q -1165.709 1522.194 -1164.448 1523.921 L -1164.448 1523.921 L -1164.448 1523.921 Q -1163.186 1525.648 -1160.961 1525.648 L -1160.961 1525.648 L -1160.961 1525.648 Q -1158.039 1525.648 -1156.695 1523.025 L -1156.695 1523.025 L -1156.695 1514.774 L -1156.695 1514.774 Q -1158.073 1512.234 -1160.928 1512.234 L -1160.928 1512.234 L -1160.928 1512.234 Q -1163.186 1512.234 -1164.448 1513.977 L -1164.448 1513.977 L -1164.448 1513.977 Q -1165.709 1515.72 -1165.709 1519.14 Z  M -1304.166 1523.157 L -1304.166 1523.157 L -1304.166 1523.157 Q -1304.166 1521.912 -1305.104 1521.223 L -1305.104 1521.223 L -1305.104 1521.223 Q -1306.042 1520.534 -1308.375 1520.036 L -1308.375 1520.036 L -1308.375 1520.036 Q -1310.707 1519.538 -1312.077 1518.841 L -1312.077 1518.841 L -1312.077 1518.841 Q -1313.447 1518.144 -1314.102 1517.181 L -1314.102 1517.181 L -1314.102 1517.181 Q -1314.758 1516.218 -1314.758 1514.89 L -1314.758 1514.89 L -1314.758 1514.89 Q -1314.758 1512.682 -1312.89 1511.154 L -1312.89 1511.154 L -1312.89 1511.154 Q -1311.023 1509.627 -1308.117 1509.627 L -1308.117 1509.627 L -1308.117 1509.627 Q -1305.063 1509.627 -1303.162 1511.204 L -1303.162 1511.204 L -1303.162 1511.204 Q -1301.261 1512.781 -1301.261 1515.238 L -1301.261 1515.238 L -1304.349 1515.238 L -1304.349 1515.238 Q -1304.349 1513.977 -1305.42 1513.064 L -1305.42 1513.064 L -1305.42 1513.064 Q -1306.49 1512.151 -1308.117 1512.151 L -1308.117 1512.151 L -1308.117 1512.151 Q -1309.794 1512.151 -1310.74 1512.881 L -1310.74 1512.881 L -1310.74 1512.881 Q -1311.687 1513.611 -1311.687 1514.79 L -1311.687 1514.79 L -1311.687 1514.79 Q -1311.687 1515.902 -1310.807 1516.467 L -1310.807 1516.467 L -1310.807 1516.467 Q -1309.927 1517.031 -1307.628 1517.546 L -1307.628 1517.546 L -1307.628 1517.546 Q -1305.328 1518.061 -1303.901 1518.775 L -1303.901 1518.775 L -1303.901 1518.775 Q -1302.473 1519.488 -1301.784 1520.493 L -1301.784 1520.493 L -1301.784 1520.493 Q -1301.095 1521.497 -1301.095 1522.942 L -1301.095 1522.942 L -1301.095 1522.942 Q -1301.095 1525.349 -1303.021 1526.801 L -1303.021 1526.801 L -1303.021 1526.801 Q -1304.947 1528.254 -1308.018 1528.254 L -1308.018 1528.254 L -1308.018 1528.254 Q -1310.176 1528.254 -1311.836 1527.49 L -1311.836 1527.49 L -1311.836 1527.49 Q -1313.496 1526.727 -1314.434 1525.357 L -1314.434 1525.357 L -1314.434 1525.357 Q -1315.372 1523.987 -1315.372 1522.394 L -1315.372 1522.394 L -1312.301 1522.394 L -1312.301 1522.394 Q -1312.218 1523.938 -1311.064 1524.842 L -1311.064 1524.842 L -1311.064 1524.842 Q -1309.91 1525.747 -1308.018 1525.747 L -1308.018 1525.747 L -1308.018 1525.747 Q -1306.275 1525.747 -1305.22 1525.042 L -1305.22 1525.042 L -1305.22 1525.042 Q -1304.166 1524.336 -1304.166 1523.157 Z  M -1293.757 1509.959 L -1293.757 1527.922 L -1296.828 1527.922 L -1296.828 1509.959 L -1293.757 1509.959 L -1293.757 1509.959 Z  M -1297.077 1505.194 L -1297.077 1505.194 L -1297.077 1505.194 Q -1297.077 1504.447 -1296.621 1503.933 L -1296.621 1503.933 L -1296.621 1503.933 Q -1296.164 1503.418 -1295.268 1503.418 L -1295.268 1503.418 L -1295.268 1503.418 Q -1294.371 1503.418 -1293.906 1503.933 L -1293.906 1503.933 L -1293.906 1503.933 Q -1293.442 1504.447 -1293.442 1505.194 L -1293.442 1505.194 L -1293.442 1505.194 Q -1293.442 1505.942 -1293.906 1506.44 L -1293.906 1506.44 L -1293.906 1506.44 Q -1294.371 1506.938 -1295.268 1506.938 L -1295.268 1506.938 L -1295.268 1506.938 Q -1296.164 1506.938 -1296.621 1506.44 L -1296.621 1506.44 L -1296.621 1506.44 Q -1297.077 1505.942 -1297.077 1505.194 Z  M -1288.86 1509.959 L -1285.954 1509.959 L -1285.871 1511.951 L -1285.871 1511.951 Q -1283.896 1509.627 -1280.542 1509.627 L -1280.542 1509.627 L -1280.542 1509.627 Q -1276.774 1509.627 -1275.412 1512.516 L -1275.412 1512.516 L -1275.412 1512.516 Q -1274.516 1511.221 -1273.08 1510.424 L -1273.08 1510.424 L -1273.08 1510.424 Q -1271.644 1509.627 -1269.685 1509.627 L -1269.685 1509.627 L -1269.685 1509.627 Q -1263.775 1509.627 -1263.675 1515.886 L -1263.675 1515.886 L -1263.675 1527.922 L -1266.746 1527.922 L -1266.746 1516.068 L -1266.746 1516.068 Q -1266.746 1514.143 -1267.626 1513.188 L -1267.626 1513.188 L -1267.626 1513.188 Q -1268.506 1512.234 -1270.581 1512.234 L -1270.581 1512.234 L -1270.581 1512.234 Q -1272.291 1512.234 -1273.42 1513.255 L -1273.42 1513.255 L -1273.42 1513.255 Q -1274.549 1514.276 -1274.732 1516.002 L -1274.732 1516.002 L -1274.732 1527.922 L -1277.82 1527.922 L -1277.82 1516.151 L -1277.82 1516.151 Q -1277.82 1512.234 -1281.655 1512.234 L -1281.655 1512.234 L -1281.655 1512.234 Q -1284.676 1512.234 -1285.788 1514.807 L -1285.788 1514.807 L -1285.788 1527.922 L -1288.86 1527.922 L -1288.86 1509.959 L -1288.86 1509.959 Z  M -1243.869 1518.858 L -1243.869 1519.14 L -1243.869 1519.14 Q -1243.869 1523.24 -1245.745 1525.747 L -1245.745 1525.747 L -1245.745 1525.747 Q -1247.621 1528.254 -1250.825 1528.254 L -1250.825 1528.254 L -1250.825 1528.254 Q -1254.096 1528.254 -1255.972 1526.179 L -1255.972 1526.179 L -1255.972 1534.828 L -1259.043 1534.828 L -1259.043 1509.959 L -1256.238 1509.959 L -1256.088 1511.951 L -1256.088 1511.951 Q -1254.212 1509.627 -1250.875 1509.627 L -1250.875 1509.627 L -1250.875 1509.627 Q -1247.638 1509.627 -1245.754 1512.068 L -1245.754 1512.068 L -1245.754 1512.068 Q -1243.869 1514.508 -1243.869 1518.858 L -1243.869 1518.858 L -1243.869 1518.858 Z  M -1246.941 1518.791 L -1246.941 1518.791 L -1246.941 1518.791 Q -1246.941 1515.753 -1248.236 1513.993 L -1248.236 1513.993 L -1248.236 1513.993 Q -1249.531 1512.234 -1251.788 1512.234 L -1251.788 1512.234 L -1251.788 1512.234 Q -1254.577 1512.234 -1255.972 1514.707 L -1255.972 1514.707 L -1255.972 1523.29 L -1255.972 1523.29 Q -1254.594 1525.747 -1251.755 1525.747 L -1251.755 1525.747 L -1251.755 1525.747 Q -1249.547 1525.747 -1248.244 1523.996 L -1248.244 1523.996 L -1248.244 1523.996 Q -1246.941 1522.244 -1246.941 1518.791 Z  M -1236.631 1502.422 L -1236.631 1527.922 L -1239.702 1527.922 L -1239.702 1502.422 L -1236.631 1502.422 L -1236.631 1502.422 Z  M -1224.263 1528.254 L -1224.263 1528.254 L -1224.263 1528.254 Q -1227.915 1528.254 -1230.206 1525.855 L -1230.206 1525.855 L -1230.206 1525.855 Q -1232.497 1523.456 -1232.497 1519.439 L -1232.497 1519.439 L -1232.497 1518.874 L -1232.497 1518.874 Q -1232.497 1516.201 -1231.476 1514.101 L -1231.476 1514.101 L -1231.476 1514.101 Q -1230.455 1512.001 -1228.621 1510.814 L -1228.621 1510.814 L -1228.621 1510.814 Q -1226.786 1509.627 -1224.645 1509.627 L -1224.645 1509.627 L -1224.645 1509.627 Q -1221.142 1509.627 -1219.199 1511.935 L -1219.199 1511.935 L -1219.199 1511.935 Q -1217.257 1514.242 -1217.257 1518.542 L -1217.257 1518.542 L -1217.257 1519.82 L -1229.426 1519.82 L -1229.426 1519.82 Q -1229.36 1522.477 -1227.874 1524.112 L -1227.874 1524.112 L -1227.874 1524.112 Q -1226.388 1525.747 -1224.097 1525.747 L -1224.097 1525.747 L -1224.097 1525.747 Q -1222.47 1525.747 -1221.341 1525.083 L -1221.341 1525.083 L -1221.341 1525.083 Q -1220.212 1524.419 -1219.365 1523.323 L -1219.365 1523.323 L -1217.49 1524.784 L -1217.49 1524.784 Q -1219.747 1528.254 -1224.263 1528.254 Z  M -1224.645 1512.151 L -1224.645 1512.151 L -1224.645 1512.151 Q -1226.504 1512.151 -1227.766 1513.504 L -1227.766 1513.504 L -1227.766 1513.504 Q -1229.028 1514.857 -1229.326 1517.297 L -1229.326 1517.297 L -1220.328 1517.297 L -1220.328 1517.065 L -1220.328 1517.065 Q -1220.461 1514.724 -1221.59 1513.437 L -1221.59 1513.437 L -1221.59 1513.437 Q -1222.719 1512.151 -1224.645 1512.151 Z  M -1403.825 1525.747 L -1403.825 1525.747 L -1403.825 1525.747 Q -1402.182 1525.747 -1400.953 1524.751 L -1400.953 1524.751 L -1400.953 1524.751 Q -1399.725 1523.755 -1399.592 1522.261 L -1399.592 1522.261 L -1396.687 1522.261 L -1396.687 1522.261 Q -1396.77 1523.805 -1397.749 1525.199 L -1397.749 1525.199 L -1397.749 1525.199 Q -1398.729 1526.594 -1400.364 1527.424 L -1400.364 1527.424 L -1400.364 1527.424 Q -1401.999 1528.254 -1403.825 1528.254 L -1403.825 1528.254 L -1403.825 1528.254 Q -1407.494 1528.254 -1409.661 1525.805 L -1409.661 1525.805 L -1409.661 1525.805 Q -1411.827 1523.357 -1411.827 1519.107 L -1411.827 1519.107 L -1411.827 1518.592 L -1411.827 1518.592 Q -1411.827 1515.969 -1410.865 1513.927 L -1410.865 1513.927 L -1410.865 1513.927 Q -1409.902 1511.885 -1408.1 1510.756 L -1408.1 1510.756 L -1408.1 1510.756 Q -1406.299 1509.627 -1403.842 1509.627 L -1403.842 1509.627 L -1403.842 1509.627 Q -1400.821 1509.627 -1398.82 1511.437 L -1398.82 1511.437 L -1398.82 1511.437 Q -1396.82 1513.246 -1396.687 1516.135 L -1396.687 1516.135 L -1399.592 1516.135 L -1399.592 1516.135 Q -1399.725 1514.392 -1400.912 1513.271 L -1400.912 1513.271 L -1400.912 1513.271 Q -1402.099 1512.151 -1403.842 1512.151 L -1403.842 1512.151 L -1403.842 1512.151 Q -1406.183 1512.151 -1407.469 1513.836 L -1407.469 1513.836 L -1407.469 1513.836 Q -1408.756 1515.521 -1408.756 1518.708 L -1408.756 1518.708 L -1408.756 1519.289 L -1408.756 1519.289 Q -1408.756 1522.394 -1407.478 1524.07 L -1407.478 1524.07 L -1407.478 1524.07 Q -1406.199 1525.747 -1403.825 1525.747 Z  M -1389.897 1502.422 L -1389.897 1527.922 L -1392.968 1527.922 L -1392.968 1502.422 L -1389.897 1502.422 L -1389.897 1502.422 Z  M -1377.529 1528.254 L -1377.529 1528.254 L -1377.529 1528.254 Q -1381.181 1528.254 -1383.472 1525.855 L -1383.472 1525.855 L -1383.472 1525.855 Q -1385.763 1523.456 -1385.763 1519.439 L -1385.763 1519.439 L -1385.763 1518.874 L -1385.763 1518.874 Q -1385.763 1516.201 -1384.742 1514.101 L -1384.742 1514.101 L -1384.742 1514.101 Q -1383.721 1512.001 -1381.886 1510.814 L -1381.886 1510.814 L -1381.886 1510.814 Q -1380.052 1509.627 -1377.91 1509.627 L -1377.91 1509.627 L -1377.91 1509.627 Q -1374.407 1509.627 -1372.465 1511.935 L -1372.465 1511.935 L -1372.465 1511.935 Q -1370.523 1514.242 -1370.523 1518.542 L -1370.523 1518.542 L -1370.523 1519.82 L -1382.692 1519.82 L -1382.692 1519.82 Q -1382.625 1522.477 -1381.139 1524.112 L -1381.139 1524.112 L -1381.139 1524.112 Q -1379.654 1525.747 -1377.363 1525.747 L -1377.363 1525.747 L -1377.363 1525.747 Q -1375.736 1525.747 -1374.607 1525.083 L -1374.607 1525.083 L -1374.607 1525.083 Q -1373.478 1524.419 -1372.631 1523.323 L -1372.631 1523.323 L -1370.755 1524.784 L -1370.755 1524.784 Q -1373.013 1528.254 -1377.529 1528.254 Z  M -1377.91 1512.151 L -1377.91 1512.151 L -1377.91 1512.151 Q -1379.77 1512.151 -1381.031 1513.504 L -1381.031 1513.504 L -1381.031 1513.504 Q -1382.293 1514.857 -1382.592 1517.297 L -1382.592 1517.297 L -1373.594 1517.297 L -1373.594 1517.065 L -1373.594 1517.065 Q -1373.727 1514.724 -1374.856 1513.437 L -1374.856 1513.437 L -1374.856 1513.437 Q -1375.985 1512.151 -1377.91 1512.151 Z  M -1352.659 1527.922 L -1355.88 1527.922 L -1355.88 1527.922 Q -1356.146 1527.391 -1356.312 1526.029 L -1356.312 1526.029 L -1356.312 1526.029 Q -1358.453 1528.254 -1361.425 1528.254 L -1361.425 1528.254 L -1361.425 1528.254 Q -1364.081 1528.254 -1365.783 1526.752 L -1365.783 1526.752 L -1365.783 1526.752 Q -1367.485 1525.249 -1367.485 1522.942 L -1367.485 1522.942 L -1367.485 1522.942 Q -1367.485 1520.136 -1365.351 1518.584 L -1365.351 1518.584 L -1365.351 1518.584 Q -1363.218 1517.031 -1359.35 1517.031 L -1359.35 1517.031 L -1356.362 1517.031 L -1356.362 1515.62 L -1356.362 1515.62 Q -1356.362 1514.01 -1357.324 1513.055 L -1357.324 1513.055 L -1357.324 1513.055 Q -1358.287 1512.101 -1360.163 1512.101 L -1360.163 1512.101 L -1360.163 1512.101 Q -1361.807 1512.101 -1362.919 1512.931 L -1362.919 1512.931 L -1362.919 1512.931 Q -1364.031 1513.761 -1364.031 1514.94 L -1364.031 1514.94 L -1367.119 1514.94 L -1367.119 1514.94 Q -1367.119 1513.595 -1366.165 1512.341 L -1366.165 1512.341 L -1366.165 1512.341 Q -1365.21 1511.088 -1363.575 1510.358 L -1363.575 1510.358 L -1363.575 1510.358 Q -1361.94 1509.627 -1359.981 1509.627 L -1359.981 1509.627 L -1359.981 1509.627 Q -1356.876 1509.627 -1355.116 1511.179 L -1355.116 1511.179 L -1355.116 1511.179 Q -1353.357 1512.732 -1353.29 1515.454 L -1353.29 1515.454 L -1353.29 1523.722 L -1353.29 1523.722 Q -1353.29 1526.195 -1352.659 1527.656 L -1352.659 1527.656 L -1352.659 1527.922 L -1352.659 1527.922 Z  M -1360.977 1525.581 L -1360.977 1525.581 L -1360.977 1525.581 Q -1359.532 1525.581 -1358.238 1524.834 L -1358.238 1524.834 L -1358.238 1524.834 Q -1356.943 1524.087 -1356.362 1522.892 L -1356.362 1522.892 L -1356.362 1519.206 L -1358.769 1519.206 L -1358.769 1519.206 Q -1364.413 1519.206 -1364.413 1522.51 L -1364.413 1522.51 L -1364.413 1522.51 Q -1364.413 1523.954 -1363.45 1524.768 L -1363.45 1524.768 L -1363.45 1524.768 Q -1362.488 1525.581 -1360.977 1525.581 Z  M -1348.476 1509.959 L -1345.571 1509.959 L -1345.471 1512.217 L -1345.471 1512.217 Q -1343.412 1509.627 -1340.092 1509.627 L -1340.092 1509.627 L -1340.092 1509.627 Q -1334.398 1509.627 -1334.348 1516.052 L -1334.348 1516.052 L -1334.348 1527.922 L -1337.419 1527.922 L -1337.419 1516.035 L -1337.419 1516.035 Q -1337.436 1514.093 -1338.307 1513.163 L -1338.307 1513.163 L -1338.307 1513.163 Q -1339.179 1512.234 -1341.022 1512.234 L -1341.022 1512.234 L -1341.022 1512.234 Q -1342.516 1512.234 -1343.645 1513.03 L -1343.645 1513.03 L -1343.645 1513.03 Q -1344.774 1513.827 -1345.405 1515.122 L -1345.405 1515.122 L -1345.405 1527.922 L -1348.476 1527.922 L -1348.476 1509.959 L -1348.476 1509.959 Z  M -1329.816 1532.736 L -1329.816 1532.736 L -1331.559 1531.541 L -1331.559 1531.541 Q -1329.998 1529.366 -1329.932 1527.059 L -1329.932 1527.059 L -1329.932 1524.286 L -1326.927 1524.286 L -1326.927 1526.693 L -1326.927 1526.693 Q -1326.927 1528.37 -1327.749 1530.047 L -1327.749 1530.047 L -1327.749 1530.047 Q -1328.571 1531.724 -1329.816 1532.736 Z  M -1425.49 1527.922 L -1427.798 1521.613 L -1437.925 1521.613 L -1440.199 1527.922 L -1443.487 1527.922 L -1434.256 1503.75 L -1431.467 1503.75 L -1422.22 1527.922 L -1425.49 1527.922 L -1425.49 1527.922 Z  M -1432.862 1507.685 L -1436.962 1518.99 L -1428.744 1518.99 L -1432.862 1507.685 L -1432.862 1507.685 Z " fill="rgb(0,0,0)"/></g></svg>